<svg xmlns="http://www.w3.org/2000/svg" xmlns:xlink="http://www.w3.org/1999/xlink" width="1178" zoomAndPan="magnify" viewBox="0 0 883.5 105.749996" height="141" preserveAspectRatio="xMidYMid meet" version="1.0"><defs><g/></defs><path fill="#fe4075" d="M 95.539062 77.953125 L 96.425781 78.832031 L 96.515625 78.921875 C 99.285156 81.792969 99.257812 86.410156 96.425781 89.242188 C 93.597656 92.070312 88.980469 92.101562 86.113281 89.328125 L 86.023438 89.242188 L 85.132812 88.359375 L 82.710938 85.925781 C 79.851562 83.066406 79.851562 78.386719 82.710938 75.519531 C 85.566406 72.660156 90.257812 72.660156 93.113281 75.519531 Z M 144.613281 37.6875 L 145.472656 36.824219 L 146.464844 35.835938 L 155.53125 26.765625 C 158.390625 23.90625 158.390625 19.226562 155.53125 16.355469 C 152.664062 13.496094 147.984375 13.496094 145.128906 16.355469 L 136.058594 25.429688 L 135.070312 26.417969 L 134.207031 27.277344 L 129.007812 32.484375 C 126.148438 35.34375 126.148438 40.023438 129.007812 42.890625 L 134.207031 48.09375 L 135.136719 49.015625 L 145.195312 59.074219 C 148.054688 61.933594 152.734375 61.933594 155.601562 59.074219 C 158.460938 56.21875 158.460938 51.527344 155.601562 48.667969 L 145.542969 38.605469 Z M 83.125 16.425781 L 83.125 16.417969 C 85.984375 13.558594 90.671875 13.558594 93.53125 16.417969 L 155.464844 78.378906 C 158.332031 81.238281 158.332031 85.925781 155.464844 88.785156 C 152.605469 91.644531 147.925781 91.644531 145.058594 88.785156 L 83.125 26.824219 C 80.265625 23.964844 80.265625 19.285156 83.125 16.425781 Z M 83.035156 46.085938 C 85.894531 43.226562 90.574219 43.226562 93.441406 46.085938 L 100.492188 53.140625 L 115.753906 68.40625 L 125.8125 78.46875 C 128.671875 81.324219 128.671875 86.015625 125.8125 88.875 C 122.945312 91.734375 118.265625 91.734375 115.40625 88.875 L 105.347656 78.8125 L 90.089844 63.546875 L 83.035156 56.492188 C 80.179688 53.632812 80.179688 48.945312 83.035156 46.085938 Z M 83.035156 46.085938 " fill-opacity="1" fill-rule="evenodd"/><g fill="#fe4075" fill-opacity="1"><g transform="translate(186.195588, 80.106029)"><g><path d="M 5.65625 0 L 5.65625 -58.265625 L 16.3125 -58.265625 L 16.3125 -8.328125 L 42.109375 -8.328125 L 42.109375 0 Z M 5.65625 0 "/></g></g></g><g fill="#fe4075" fill-opacity="1"><g transform="translate(244.956472, 80.106029)"><g><path d="M 5.65625 0 L 5.65625 -58.265625 L 16.3125 -58.265625 L 16.3125 0 Z M 5.65625 0 "/></g></g></g><g fill="#fe4075" fill-opacity="1"><g transform="translate(279.830518, 80.106029)"><g><path d="M 5.65625 0 L 5.65625 -58.265625 L 16.3125 -58.265625 L 43.703125 -17.234375 L 43.703125 -58.265625 L 54.359375 -58.265625 L 54.359375 0 L 43.703125 0 L 16.3125 -40.953125 L 16.3125 0 Z M 5.65625 0 "/></g></g></g><g fill="#fe4075" fill-opacity="1"><g transform="translate(352.74039, 80.106029)"><g><path d="M 5.65625 0 L 5.65625 -58.265625 L 43.703125 -58.265625 L 43.703125 -49.6875 L 16.3125 -49.6875 L 16.3125 -33.703125 L 41.203125 -33.703125 L 41.203125 -25.390625 L 16.3125 -25.390625 L 16.3125 -8.578125 L 43.703125 -8.578125 L 43.703125 0 Z M 5.65625 0 "/></g></g></g><g fill="#fe4075" fill-opacity="1"><g transform="translate(413.739765, 80.106029)"><g><path d="M 19.8125 0 L 19.8125 -52.515625 L 2.40625 -52.515625 L 2.40625 -58.265625 L 44.203125 -58.265625 L 44.203125 -52.515625 L 26.796875 -52.515625 L 26.796875 0 Z M 19.8125 0 "/></g></g></g><g fill="#fe4075" fill-opacity="1"><g transform="translate(473.249714, 80.106029)"><g><path d="M 6.15625 0 L 6.15625 -58.265625 L 42.203125 -58.265625 L 42.203125 -52.515625 L 13.15625 -52.515625 L 13.15625 -32.21875 L 39.703125 -32.21875 L 39.703125 -26.546875 L 13.15625 -26.546875 L 13.15625 -5.75 L 42.203125 -5.75 L 42.203125 0 Z M 6.15625 0 "/></g></g></g><g fill="#fe4075" fill-opacity="1"><g transform="translate(533.09258, 80.106029)"><g><path d="M 31.71875 1 C 26 1 21.070312 -0.257812 16.9375 -2.78125 C 12.800781 -5.3125 9.59375 -8.835938 7.3125 -13.359375 C 5.039062 -17.878906 3.90625 -23.132812 3.90625 -29.125 C 3.90625 -35.0625 5.039062 -40.289062 7.3125 -44.8125 C 9.59375 -49.34375 12.800781 -52.882812 16.9375 -55.4375 C 21.070312 -57.988281 26 -59.265625 31.71875 -59.265625 C 38.375 -59.265625 43.796875 -57.664062 47.984375 -54.46875 C 52.171875 -51.28125 54.847656 -46.832031 56.015625 -41.125 L 48.28125 -41.125 C 47.382812 -44.726562 45.5625 -47.625 42.8125 -49.8125 C 40.070312 -52.007812 36.375 -53.109375 31.71875 -53.109375 C 27.550781 -53.109375 23.910156 -52.148438 20.796875 -50.234375 C 17.691406 -48.316406 15.289062 -45.566406 13.59375 -41.984375 C 11.90625 -38.410156 11.0625 -34.125 11.0625 -29.125 C 11.0625 -24.132812 11.90625 -19.847656 13.59375 -16.265625 C 15.289062 -12.691406 17.691406 -9.945312 20.796875 -8.03125 C 23.910156 -6.113281 27.550781 -5.15625 31.71875 -5.15625 C 36.375 -5.15625 40.070312 -6.222656 42.8125 -8.359375 C 45.5625 -10.492188 47.382812 -13.335938 48.28125 -16.890625 L 56.015625 -16.890625 C 54.847656 -11.285156 52.171875 -6.898438 47.984375 -3.734375 C 43.796875 -0.578125 38.375 1 31.71875 1 Z M 31.71875 1 "/></g></g></g><g fill="#fe4075" fill-opacity="1"><g transform="translate(605.91922, 80.106029)"><g><path d="M 6.15625 0 L 6.15625 -58.265625 L 13.15625 -58.265625 L 13.15625 -32.546875 L 43.359375 -32.546875 L 43.359375 -58.265625 L 50.359375 -58.265625 L 50.359375 0 L 43.359375 0 L 43.359375 -26.796875 L 13.15625 -26.796875 L 13.15625 0 Z M 6.15625 0 "/></g></g></g><g fill="#ffffff" fill-opacity="1"><g transform="translate(179.133705, 80.106029)"><g><path d="M 5.65625 0 L 5.65625 -58.265625 L 16.3125 -58.265625 L 16.3125 -8.328125 L 42.109375 -8.328125 L 42.109375 0 Z M 5.65625 0 "/></g></g></g><g fill="#ffffff" fill-opacity="1"><g transform="translate(237.894588, 80.106029)"><g><path d="M 5.65625 0 L 5.65625 -58.265625 L 16.3125 -58.265625 L 16.3125 0 Z M 5.65625 0 "/></g></g></g><g fill="#ffffff" fill-opacity="1"><g transform="translate(272.768635, 80.106029)"><g><path d="M 5.65625 0 L 5.65625 -58.265625 L 16.3125 -58.265625 L 43.703125 -17.234375 L 43.703125 -58.265625 L 54.359375 -58.265625 L 54.359375 0 L 43.703125 0 L 16.3125 -40.953125 L 16.3125 0 Z M 5.65625 0 "/></g></g></g><g fill="#ffffff" fill-opacity="1"><g transform="translate(345.678506, 80.106029)"><g><path d="M 5.65625 0 L 5.65625 -58.265625 L 43.703125 -58.265625 L 43.703125 -49.6875 L 16.3125 -49.6875 L 16.3125 -33.703125 L 41.203125 -33.703125 L 41.203125 -25.390625 L 16.3125 -25.390625 L 16.3125 -8.578125 L 43.703125 -8.578125 L 43.703125 0 Z M 5.65625 0 "/></g></g></g><g fill="#ffffff" fill-opacity="1"><g transform="translate(406.677881, 80.106029)"><g><path d="M 19.8125 0 L 19.8125 -52.515625 L 2.40625 -52.515625 L 2.40625 -58.265625 L 44.203125 -58.265625 L 44.203125 -52.515625 L 26.796875 -52.515625 L 26.796875 0 Z M 19.8125 0 "/></g></g></g><g fill="#ffffff" fill-opacity="1"><g transform="translate(466.18783, 80.106029)"><g><path d="M 6.15625 0 L 6.15625 -58.265625 L 42.203125 -58.265625 L 42.203125 -52.515625 L 13.15625 -52.515625 L 13.15625 -32.21875 L 39.703125 -32.21875 L 39.703125 -26.546875 L 13.15625 -26.546875 L 13.15625 -5.75 L 42.203125 -5.75 L 42.203125 0 Z M 6.15625 0 "/></g></g></g><g fill="#ffffff" fill-opacity="1"><g transform="translate(526.030696, 80.106029)"><g><path d="M 31.71875 1 C 26 1 21.070312 -0.257812 16.9375 -2.78125 C 12.800781 -5.3125 9.59375 -8.835938 7.3125 -13.359375 C 5.039062 -17.878906 3.90625 -23.132812 3.90625 -29.125 C 3.90625 -35.0625 5.039062 -40.289062 7.3125 -44.8125 C 9.59375 -49.34375 12.800781 -52.882812 16.9375 -55.4375 C 21.070312 -57.988281 26 -59.265625 31.71875 -59.265625 C 38.375 -59.265625 43.796875 -57.664062 47.984375 -54.46875 C 52.171875 -51.28125 54.847656 -46.832031 56.015625 -41.125 L 48.28125 -41.125 C 47.382812 -44.726562 45.5625 -47.625 42.8125 -49.8125 C 40.070312 -52.007812 36.375 -53.109375 31.71875 -53.109375 C 27.550781 -53.109375 23.910156 -52.148438 20.796875 -50.234375 C 17.691406 -48.316406 15.289062 -45.566406 13.59375 -41.984375 C 11.90625 -38.410156 11.0625 -34.125 11.0625 -29.125 C 11.0625 -24.132812 11.90625 -19.847656 13.59375 -16.265625 C 15.289062 -12.691406 17.691406 -9.945312 20.796875 -8.03125 C 23.910156 -6.113281 27.550781 -5.15625 31.71875 -5.15625 C 36.375 -5.15625 40.070312 -6.222656 42.8125 -8.359375 C 45.5625 -10.492188 47.382812 -13.335938 48.28125 -16.890625 L 56.015625 -16.890625 C 54.847656 -11.285156 52.171875 -6.898438 47.984375 -3.734375 C 43.796875 -0.578125 38.375 1 31.71875 1 Z M 31.71875 1 "/></g></g></g><g fill="#ffffff" fill-opacity="1"><g transform="translate(598.857336, 80.106029)"><g><path d="M 6.15625 0 L 6.15625 -58.265625 L 13.15625 -58.265625 L 13.15625 -32.546875 L 43.359375 -32.546875 L 43.359375 -58.265625 L 50.359375 -58.265625 L 50.359375 0 L 43.359375 0 L 43.359375 -26.796875 L 13.15625 -26.796875 L 13.15625 0 Z M 6.15625 0 "/></g></g></g></svg>