<svg width="39" height="39" viewBox="0 0 39 39" fill="none" xmlns="http://www.w3.org/2000/svg">
<path d="M5.71973 33.2812C3.99473 31.5563 5.13848 27.9375 4.25723 25.8187C3.37598 23.7 0.000976562 21.8438 0.000976562 19.5C0.000976562 17.1562 3.33848 15.375 4.25723 13.1813C5.17598 10.9875 3.99473 7.44375 5.71973 5.71875C7.44473 3.99375 11.0635 5.1375 13.1822 4.25625C15.301 3.375 17.1572 0 19.501 0C21.8447 0 23.626 3.3375 25.8197 4.25625C28.0135 5.175 31.5572 3.99375 33.2822 5.71875C35.0072 7.44375 33.8635 11.0625 34.7447 13.1813C35.626 15.3 39.001 17.1562 39.001 19.5C39.001 21.8438 35.6635 23.625 34.7447 25.8187C33.826 28.0125 35.0072 31.5563 33.2822 33.2812C31.5572 35.0062 27.9385 33.8625 25.8197 34.7438C23.701 35.625 21.8447 39 19.501 39C17.1572 39 15.376 35.6625 13.1822 34.7438C10.9885 33.825 7.44473 35.0062 5.71973 33.2812Z" fill="#CFB8FF"/>
</svg>
