<svg width="51" height="47" viewBox="0 0 51 47" fill="none" xmlns="http://www.w3.org/2000/svg">
<path d="M0.00109546 35.4978L9.05976 1.69037C9.17989 1.24206 9.47319 0.859824 9.87513 0.627759C10.2771 0.395695 10.7548 0.332808 11.2031 0.452933L48.3912 10.4175C48.8395 10.5376 49.2218 10.8309 49.4538 11.2328C49.6859 11.6348 49.7488 12.1125 49.6286 12.5608L40.57 46.3682L34.7144 41.1757L27.047 42.7447L21.1914 37.5522L13.5241 39.1212L7.66844 33.9288L0.00109546 35.4978Z" fill="#6952F9"/>
<path d="M11.6236 25.9297L22.0086 14.2185L25.1466 29.5532" stroke="#CFB8FF" stroke-width="3.5" stroke-linecap="round" stroke-linejoin="round"/>
<path d="M14.2197 23.002L24.3619 25.7196" stroke="#CFB8FF" stroke-width="3.5" stroke-linecap="round" stroke-linejoin="round"/>
<path d="M30.3389 23.6978L38.7907 25.9624" stroke="#CFB8FF" stroke-width="3.5" stroke-linecap="round" stroke-linejoin="round"/>
<path d="M35.6973 20.604L33.4326 29.0559" stroke="#CFB8FF" stroke-width="3.5" stroke-linecap="round" stroke-linejoin="round"/>
</svg>
