<svg width="55" height="50" viewBox="0 0 55 50" fill="none" xmlns="http://www.w3.org/2000/svg">
<path d="M0.000976562 49.6346H19.3182C22.0775 49.6346 24.7749 48.8164 27.0691 47.2834C29.3634 45.7504 31.1516 43.5715 32.2075 41.0222C33.2635 38.4729 33.5398 35.6678 33.0015 32.9615C32.4631 30.2552 31.1344 27.7693 29.1833 25.8182C27.2321 23.8671 24.7463 22.5383 22.04 22C19.3337 21.4617 16.5285 21.738 13.9793 22.7939C11.43 23.8499 9.25109 25.638 7.71809 27.9323C6.1851 30.2266 5.36687 32.924 5.36687 35.6833C5.36687 45.3419 0.000976562 49.6346 0.000976562 49.6346Z" fill="#6952F9"/>
<path d="M24.791 22.8587C29.9423 15.9099 43.0351 0 55.001 0C55.001 11.9659 39.0911 25.0587 32.1423 30.21" fill="#CFB8FF"/>
<path d="M30.3184 15.9907C33.9537 18.0424 36.9595 21.0481 39.0111 24.6835Z" fill="#C1FF00"/>
</svg>
