<svg width="46" height="44" viewBox="0 0 46 44" fill="none" xmlns="http://www.w3.org/2000/svg">
<path d="M22.0315 0.836832C22.2858 -0.16985 23.7161 -0.16985 23.9705 0.836831L27.0169 12.8926C27.1696 13.4969 27.8317 13.8158 28.3994 13.5584L39.7243 8.42348C40.67 7.99471 41.5618 9.11296 40.9333 9.9395L33.4071 19.8379C33.0299 20.334 33.1934 21.0506 33.7485 21.3339L44.8242 26.9866C45.749 27.4586 45.4308 28.853 44.3927 28.877L31.9613 29.1643C31.3382 29.1787 30.88 29.7533 31.0046 30.364L33.4907 42.5477C33.6983 43.565 32.4097 44.1856 31.7437 43.389L23.7682 33.8488C23.3685 33.3707 22.6335 33.3707 22.2338 33.8488L14.2583 43.389C13.5923 44.1856 12.3036 43.565 12.5112 42.5477L14.9974 30.364C15.122 29.7533 14.6637 29.1787 14.0407 29.1643L1.60923 28.877C0.57118 28.853 0.252909 27.4586 1.17775 26.9866L12.2534 21.3339C12.8085 21.0506 12.9721 20.334 12.5949 19.8379L5.06862 9.9395C4.44017 9.11296 5.33195 7.99471 6.2776 8.42348L17.6026 13.5584C18.1702 13.8158 18.8324 13.4969 18.9851 12.8926L22.0315 0.836832Z" fill="#C1FF00"/>
</svg>
